<svg width="60" height="35" viewBox="0 0 60 35" fill="none" xmlns="http://www.w3.org/2000/svg">
<path d="M43.8076 26.1486C42.43 26.1486 41.3093 24.9875 41.3093 23.5611C41.3093 22.1348 42.43 20.9745 43.8076 20.9745C45.1854 20.9745 46.3061 22.1345 46.3061 23.5611C46.3061 24.9877 45.1854 26.1486 43.8076 26.1486ZM16.1924 26.1486C14.8148 26.1486 13.6942 24.9875 13.6942 23.5611C13.6942 22.1348 14.8146 20.9745 16.1924 20.9745C17.57 20.9745 18.6907 22.1345 18.6907 23.5611C18.6907 24.9877 17.5703 26.1486 16.1924 26.1486ZM44.7037 10.5666L49.697 1.61277C49.8344 1.36566 49.8716 1.0722 49.8003 0.796761C49.729 0.521325 49.5551 0.286417 49.3167 0.14358C49.078 0.00133525 48.7946 -0.0371006 48.5286 0.0367021C48.2626 0.110505 48.0357 0.29052 47.8977 0.537272L42.842 9.60429C38.9755 7.77763 34.6334 6.7599 30 6.7599C25.3666 6.7599 21.0245 7.77763 17.1582 9.60429L12.1023 0.537272C11.9643 0.29052 11.7374 0.110505 11.4714 0.0367021C11.2054 -0.0371006 10.922 0.00133525 10.6833 0.14358C10.4448 0.286283 10.2708 0.521193 10.1994 0.796685C10.1281 1.07218 10.1654 1.36571 10.303 1.61277L15.2963 10.5666C6.72213 15.3949 0.857901 24.3821 0 35H60C59.1414 24.3824 53.2772 15.3949 44.7037 10.5664" fill="#3DDB85"/>
</svg>
