<svg width="60" height="60" viewBox="0 0 60 60" fill="none" xmlns="http://www.w3.org/2000/svg">
<path d="M30.0001 0C13.4336 0 0 13.7712 0 30.7594C0 44.35 8.59593 55.8798 20.516 59.9472C22.0152 60.2318 22.5658 59.2799 22.5658 58.4674C22.5658 57.734 22.5378 55.3108 22.5251 52.7406C14.1788 54.6013 12.4177 49.1113 12.4177 49.1113C11.053 45.5559 9.08674 44.6108 9.08674 44.6108C6.36495 42.7016 9.29191 42.7407 9.29191 42.7407C12.3045 42.9578 13.8908 45.9106 13.8908 45.9106C16.5665 50.6131 20.9089 49.2534 22.6208 48.4677C22.89 46.4794 23.6676 45.1227 24.5255 44.3546C17.8622 43.5766 10.8573 40.9391 10.8573 29.153C10.8573 25.7949 12.0292 23.0508 13.9484 20.8968C13.6369 20.1219 12.6101 16.9935 14.239 12.7566C14.239 12.7566 16.7582 11.9298 22.4912 15.9096C24.8841 15.2279 27.4506 14.8863 30.0001 14.8747C32.5497 14.8863 35.1181 15.2279 37.5156 15.9096C43.2418 11.9298 45.7574 12.7566 45.7574 12.7566C47.3903 16.9935 46.3631 20.1219 46.0515 20.8968C47.975 23.0508 49.139 25.7947 49.139 29.153C49.139 40.9671 42.1209 43.5686 35.4406 44.33C36.5166 45.2845 37.4754 47.1566 37.4754 50.0261C37.4754 54.1417 37.4406 57.4542 37.4406 58.4674C37.4406 59.2859 37.9805 60.2451 39.5014 59.9431C51.4149 55.8712 60 44.3454 60 30.7594C60 13.7712 46.5682 0 30.0001 0Z" fill="white"/>
<path d="M11.2361 43.8176C11.1703 43.9703 10.9354 44.0162 10.722 43.9115C10.5044 43.8111 10.382 43.6027 10.4526 43.4492C10.5173 43.292 10.7521 43.248 10.9693 43.3537C11.1874 43.4538 11.3117 43.6642 11.2361 43.8176ZM12.7118 45.1676C12.5688 45.3037 12.289 45.2405 12.0992 45.0255C11.9029 44.8111 11.8662 44.5245 12.0114 44.3862C12.1589 44.2504 12.4302 44.3139 12.6269 44.5286C12.8231 44.7454 12.8613 45.0303 12.7116 45.1678L12.7118 45.1676ZM13.7243 46.8949C13.5403 47.0259 13.2396 46.9031 13.054 46.6295C12.8702 46.3562 12.8702 46.0281 13.058 45.8966C13.2443 45.7652 13.5403 45.8834 13.7285 46.1548C13.912 46.4329 13.912 46.761 13.724 46.8951L13.7243 46.8949ZM15.4362 48.8955C15.2718 49.0813 14.9217 49.0316 14.6652 48.7778C14.4031 48.5298 14.3299 48.1778 14.4948 47.9918C14.6612 47.8056 15.0134 47.8579 15.2718 48.1095C15.5322 48.3571 15.6118 48.7117 15.4365 48.8955H15.4362ZM17.6489 49.571C17.5766 49.8117 17.2392 49.9213 16.8995 49.819C16.5602 49.7136 16.3381 49.4313 16.4065 49.1879C16.4771 48.9454 16.8159 48.8313 17.1583 48.9409C17.4971 49.0458 17.7197 49.3259 17.6491 49.571H17.6489ZM20.1674 49.8573C20.1758 50.1111 19.8876 50.3215 19.5309 50.3261C19.1721 50.334 18.882 50.1287 18.8782 49.8793C18.8782 49.6231 19.1599 49.4147 19.5184 49.4086C19.8751 49.4014 20.1674 49.6052 20.1674 49.8573ZM22.6412 49.7601C22.684 50.0076 22.436 50.2619 22.0819 50.3294C21.7337 50.3946 21.4113 50.2419 21.3668 49.9965C21.3236 49.7427 21.5763 49.4887 21.9238 49.4229C22.2786 49.3596 22.596 49.5085 22.6412 49.7601Z" fill="white"/>
</svg>
