<svg width="60" height="60" viewBox="0 0 60 60" fill="none" xmlns="http://www.w3.org/2000/svg">
<path d="M60 0H0V60H60V0Z" fill="#F7DF1E"/>
<path d="M40.3045 46.8753C41.5131 48.8486 43.0855 50.2991 45.8664 50.2991C48.2026 50.2991 49.695 49.1315 49.695 47.5181C49.695 45.5848 48.1617 44.9 45.5902 43.7753L44.1807 43.1705C40.1121 41.4372 37.4093 39.2658 37.4093 34.6753C37.4093 30.4467 40.6312 27.2277 45.6664 27.2277C49.2512 27.2277 51.8283 28.4753 53.6855 31.7419L49.295 34.561C48.3283 32.8277 47.2855 32.1448 45.6664 32.1448C44.015 32.1448 42.9683 33.1924 42.9683 34.561C42.9683 36.2524 44.0159 36.9372 46.435 37.9848L47.8445 38.5886C52.635 40.6429 55.3398 42.7372 55.3398 47.4458C55.3398 52.5219 51.3521 55.3029 45.9969 55.3029C40.7607 55.3029 37.3779 52.8077 35.7226 49.5372L40.3045 46.8753ZM20.3874 47.3638C21.2731 48.9353 22.0788 50.2639 24.0159 50.2639C25.8683 50.2639 27.0369 49.5391 27.0369 46.721V27.5496H32.675V46.7972C32.675 52.6353 29.2521 55.2924 24.2559 55.2924C19.7417 55.2924 17.1274 52.9562 15.7979 50.1424L20.3874 47.3638Z" fill="black"/>
</svg>
