<svg width="25" height="60" viewBox="0 0 25 60" fill="none" xmlns="http://www.w3.org/2000/svg">
<g clip-path="url(#clip0_34_55)">
<path d="M12.3256 0.163818L13.8109 3.17109C14.1448 3.72605 14.5066 4.21726 14.9327 4.67473C16.1819 6.00462 17.3463 7.424 18.418 8.92316C20.9346 12.4854 22.6321 16.4413 23.8443 20.7198C24.5713 23.3333 24.9661 26.0144 24.9957 28.7254C25.1174 36.8304 22.5399 43.7899 17.3432 49.5739C16.4979 50.4911 15.5847 51.3325 14.6126 52.0899C14.0978 52.0899 13.8543 51.6643 13.6422 51.2725C13.2558 50.5459 12.9986 49.7479 12.8839 48.9195C12.7013 47.939 12.5813 46.9584 12.6404 45.946V45.4885C12.5986 45.3911 12.1447 0.394426 12.3256 0.163818Z" fill="#599636"/>
<path d="M12.3258 0.0645009C12.265 -0.0667394 12.2041 0.0326282 12.1432 0.0963735C12.1728 0.752575 11.9606 1.33753 11.6284 1.89624C11.2632 2.4512 10.7797 2.87679 10.2944 3.33426C7.59869 5.85032 5.47687 8.88947 3.77767 12.2886C1.51671 16.8633 0.351451 21.766 0.0210038 26.9275C-0.130306 28.7892 0.567112 35.3588 1.11148 37.2542C2.59675 42.2864 5.26468 46.5029 8.72047 50.1627C9.5692 51.0438 10.4771 51.8613 11.4162 52.6468C11.6893 52.6468 11.7188 52.3844 11.7815 52.1894C11.9012 51.7722 11.9924 51.3461 12.0545 50.9145L12.6632 46.0136L12.3258 0.0645009Z" fill="#6CAC48"/>
<path d="M13.8109 54.0811C13.8718 53.3311 14.2057 52.7087 14.5692 52.0881C14.204 51.925 13.9326 51.6007 13.7205 51.2388C13.5375 50.8962 13.386 50.5351 13.2683 50.1608C12.8439 48.7884 12.7535 47.3485 12.6317 45.9461V45.0968C12.4804 45.228 12.4491 46.338 12.4491 46.5029C12.3606 47.9852 12.1781 49.4591 11.903 50.9145C11.8126 51.5032 11.7517 52.09 11.416 52.6131C11.416 52.6787 11.416 52.7443 11.4456 52.8418C11.9917 54.5742 12.1413 56.3384 12.2334 58.1364V58.7926C12.2334 59.5763 12.2039 59.4113 12.8074 59.6738C13.0509 59.7713 13.3222 59.805 13.5657 60C13.7483 60 13.7779 59.8369 13.7779 59.7056L13.6874 58.6276V55.6203C13.6578 55.0954 13.7483 54.5742 13.8092 54.083L13.8109 54.0811Z" fill="#C2BFBF"/>
</g>
<defs>
<clipPath id="clip0_34_55">
<rect width="25" height="60" fill="white"/>
</clipPath>
</defs>
</svg>
