<svg width="60" height="60" viewBox="0 0 60 60" fill="none" xmlns="http://www.w3.org/2000/svg">
<path d="M27.2929 0.640115C28.9323 -0.211448 31.0677 -0.215294 32.7057 0.640115C40.9465 4.86566 49.1899 9.08459 57.4293 13.3127C58.979 14.1049 60.0156 15.6699 59.9998 17.2904V42.7129C60.0114 44.4004 58.8723 46.0029 57.2374 46.7771C49.0236 50.9794 40.8142 55.1867 32.6019 59.389C30.9285 60.2572 28.7503 60.1903 27.1292 59.2509C24.6668 57.9555 22.2001 56.6666 19.7374 55.3724C19.2341 55.1002 18.6668 54.8835 18.3115 54.4407C18.6256 54.0565 19.1873 54.0086 19.6436 53.8409C20.6715 53.5443 21.6156 53.0682 22.5599 52.6062C22.7987 52.4579 23.0902 52.5147 23.3191 52.6474C25.4248 53.743 27.5119 54.8705 29.6247 55.9556C30.0754 56.1917 30.5317 55.8782 30.917 55.6834C38.9772 51.5495 47.0472 47.4312 55.106 43.2961C55.4046 43.1657 55.5697 42.8781 55.5454 42.5813C55.551 34.1949 55.5468 25.8071 55.5482 17.4207C55.5824 17.0839 55.3676 16.7743 55.032 16.6365C46.8468 12.4534 38.6659 8.26401 30.4821 4.07992C30.3403 3.99146 30.1723 3.944 30.0002 3.94377C29.8282 3.94354 29.6601 3.99056 29.518 4.07864C21.3342 8.26401 13.1546 12.4573 4.97081 16.6401C4.63643 16.7781 4.41201 17.0827 4.45181 17.4207C4.45322 25.8071 4.45181 34.1949 4.45181 42.5825C4.43761 42.7274 4.47267 42.8727 4.55224 42.9988C4.63182 43.125 4.75209 43.2261 4.89687 43.2884C7.08076 44.4122 9.26747 45.5281 11.4528 46.648C12.6839 47.2494 14.1955 47.6067 15.5518 47.1459C16.7488 46.7564 17.5878 45.6479 17.565 44.4946C17.5763 36.1572 17.5594 27.8185 17.5735 19.4824C17.5436 19.1123 17.9305 18.8065 18.327 18.8413C19.3764 18.8349 20.4271 18.8285 21.4764 18.8439C21.9144 18.8349 22.2158 19.2335 22.1617 19.6064C22.1574 27.9966 22.173 36.387 22.1546 44.7772C22.1574 47.0132 21.1451 49.4463 18.8658 50.5404C16.0579 51.8604 12.5873 51.5805 9.81332 50.3148C7.41185 49.2271 5.12011 47.9434 2.76126 46.7782C1.12205 46.0082 -0.0113361 44.3993 0.000202682 42.7131V17.2904C-0.0169877 15.6364 1.06083 14.0429 2.65883 13.2623C10.8711 9.05659 19.082 4.84771 27.2929 0.640115Z" fill="#8CC84B"/>
<path d="M34.4577 18.2505C38.0394 18.0413 41.8738 18.1265 45.0969 19.7277C47.5923 20.9547 48.9758 23.5299 49.0198 26.0457C48.9501 26.3851 48.5592 26.5723 48.2022 26.549C47.163 26.5477 46.1236 26.5618 45.0844 26.5426C44.6436 26.558 44.3874 26.1891 44.332 25.8355C44.0335 24.6317 43.31 23.4396 42.0615 22.859C40.1449 21.9882 37.9226 22.032 35.8327 22.0501C34.307 22.1236 32.6664 22.2435 31.3738 23.0577C30.3815 23.6744 30.08 24.9194 30.4342 25.922C30.7681 26.6419 31.6839 26.8742 32.4332 27.0883C36.7497 28.1128 41.3237 28.0109 45.5577 29.359C47.3107 29.9087 49.0255 30.9771 49.6255 32.6426C50.4104 34.8749 50.0663 37.543 48.3162 39.335C46.8969 40.8097 44.8299 41.6124 42.7682 42.0483C40.0255 42.6032 37.1792 42.6174 34.3939 42.371C31.7748 42.1 29.0493 41.4756 27.0275 39.8562C25.2985 38.4939 24.4541 36.3713 24.5379 34.3227C24.5579 33.9767 24.9375 33.7355 25.3028 33.7639C26.3493 33.7562 27.3958 33.7536 28.4422 33.7652C28.8602 33.738 29.1701 34.0658 29.1916 34.4233C29.3847 35.5702 29.8596 36.7739 30.9617 37.4539C33.0886 38.6991 35.7573 38.6138 38.1927 38.6487C40.2104 38.5675 42.4752 38.5429 44.1218 37.3327C44.9905 36.6425 45.2478 35.4877 45.0131 34.4943C44.7587 33.6555 43.7918 33.2647 42.9615 33.0091C38.7004 31.7859 34.0753 32.2298 29.8554 30.8465C28.1422 30.2971 26.4856 29.2584 25.8274 27.6613C24.909 25.4008 25.3298 22.6049 27.2634 20.8733C29.1487 19.151 31.8702 18.4877 34.4577 18.2503V18.2505Z" fill="#8CC84B"/>
</svg>
