<svg width="60" height="60" viewBox="0 0 60 60" fill="none" xmlns="http://www.w3.org/2000/svg">
<path d="M29.7838 0C14.5521 0 15.5031 6.63991 15.5031 6.63991L15.52 13.5191H30.0554V15.5844H9.7468C9.7468 15.5844 0 14.4732 0 29.9222C0 45.3718 8.50725 44.8238 8.50725 44.8238H13.5843V37.6547C13.5843 37.6547 13.3106 29.103 21.9558 29.103H36.3723C36.3723 29.103 44.4719 29.2345 44.4719 21.234V8.00568C44.4719 8.00568 45.7021 0 29.7838 0ZM21.769 4.62609C22.1125 4.62578 22.4527 4.69356 22.7701 4.82555C23.0875 4.95754 23.3758 5.15114 23.6187 5.39529C23.8616 5.63944 24.0542 5.92933 24.1855 6.24839C24.3168 6.56744 24.3842 6.90939 24.3839 7.25466C24.3842 7.59994 24.3168 7.94189 24.1855 8.26094C24.0542 8.57999 23.8616 8.86989 23.6187 9.11404C23.3758 9.35818 23.0875 9.55179 22.7701 9.68378C22.4527 9.81577 22.1125 9.88354 21.769 9.88323C21.4255 9.88354 21.0854 9.81577 20.768 9.68378C20.4506 9.55179 20.1622 9.35818 19.9193 9.11404C19.6764 8.86989 19.4838 8.57999 19.3525 8.26094C19.2212 7.94189 19.1538 7.59994 19.1541 7.25466C19.1538 6.90939 19.2212 6.56744 19.3525 6.24839C19.4838 5.92933 19.6764 5.63944 19.9193 5.39529C20.1622 5.15114 20.4506 4.95754 20.768 4.82555C21.0854 4.69356 21.4255 4.62578 21.769 4.62609Z" fill="url(#paint0_linear_34_21)"/>
<path d="M30.2162 60C45.448 60 44.497 53.3601 44.497 53.3601L44.48 46.4812H29.9444V44.4159H50.253C50.253 44.4159 59.9998 45.5271 59.9998 30.0775C59.9998 14.6282 51.4926 15.1761 51.4926 15.1761H46.4155V22.3451C46.4155 22.3451 46.6892 30.8968 38.044 30.8968H23.6275C23.6275 30.8968 15.5279 30.7652 15.5279 38.766V51.9946C15.5279 51.9946 14.298 60 30.216 60H30.2162ZM38.231 55.3744C37.8876 55.3747 37.5474 55.3069 37.23 55.1749C36.9126 55.043 36.6242 54.8494 36.3813 54.6052C36.1385 54.3611 35.9459 54.0712 35.8146 53.7521C35.6833 53.4331 35.6158 53.0911 35.6161 52.7458C35.6158 52.4005 35.6832 52.0586 35.8145 51.7395C35.9458 51.4204 36.1384 51.1305 36.3813 50.8863C36.6241 50.6421 36.9125 50.4485 37.2299 50.3165C37.5474 50.1845 37.8875 50.1167 38.231 50.117C38.5745 50.1167 38.9147 50.1845 39.2321 50.3165C39.5495 50.4485 39.8379 50.6421 40.0808 50.8862C40.3236 51.1304 40.5162 51.4203 40.6475 51.7393C40.7788 52.0584 40.8463 52.4003 40.846 52.7456C40.8463 53.0909 40.7788 53.4328 40.6475 53.7519C40.5162 54.0709 40.3236 54.3608 40.0808 54.605C39.8379 54.8491 39.5495 55.0427 39.2321 55.1747C38.9147 55.3067 38.5745 55.3745 38.231 55.3742V55.3744Z" fill="url(#paint1_linear_34_21)"/>
<defs>
<linearGradient id="paint0_linear_34_21" x1="5.76598" y1="5.39663" x2="35.6536" y2="34.8322" gradientUnits="userSpaceOnUse">
<stop stop-color="#387EB8"/>
<stop offset="1" stop-color="#366994"/>
</linearGradient>
<linearGradient id="paint1_linear_34_21" x1="24.0167" y1="24.3985" x2="56.1048" y2="54.5747" gradientUnits="userSpaceOnUse">
<stop stop-color="#FFE052"/>
<stop offset="1" stop-color="#FFC331"/>
</linearGradient>
</defs>
</svg>
