<svg width="66" height="60" viewBox="0 0 66 60" fill="none" xmlns="http://www.w3.org/2000/svg">
<path d="M33.0001 35.2898C36.0879 35.2898 38.591 32.9215 38.591 30.0001C38.591 27.0786 36.0879 24.7103 33.0001 24.7103C29.9123 24.7103 27.4092 27.0786 27.4092 30.0001C27.4092 32.9215 29.9123 35.2898 33.0001 35.2898Z" fill="#61DAFB"/>
<path d="M33 40.8375C49.5685 40.8375 63 35.9854 63 30C63 24.0146 49.5685 19.1625 33 19.1625C16.4315 19.1625 3 24.0146 3 30C3 35.9854 16.4315 40.8375 33 40.8375Z" stroke="#61DAFB" stroke-width="5"/>
<path d="M23.0801 35.4187C31.3643 48.9946 42.5214 57.5739 48 54.5812C53.4786 51.5885 51.2042 38.1571 42.9199 24.5812C34.6357 11.0054 23.4786 2.42606 18 5.41876C12.5214 8.41145 14.7958 21.8429 23.0801 35.4187Z" stroke="#61DAFB" stroke-width="5"/>
<path d="M23.0801 24.5812C14.7958 38.1571 12.5214 51.5885 18 54.5812C23.4786 57.5739 34.6356 48.9946 42.9199 35.4188C51.2042 21.8429 53.4786 8.41146 48 5.41877C42.5214 2.42607 31.3643 11.0054 23.0801 24.5812Z" stroke="#61DAFB" stroke-width="5"/>
</svg>
