<svg width="90" height="54" viewBox="0 0 90 54" fill="none" xmlns="http://www.w3.org/2000/svg">
<path d="M45 0C32.9996 0 25.4998 6.00013 22.4994 17.9992C27 11.9991 32.2501 9.74992 38.2497 11.2494C41.6733 12.1049 44.1199 14.5894 46.8288 17.3384C51.2405 21.8166 56.3465 26.9994 67.5006 26.9994C79.4998 26.9994 87.0008 20.9993 90 8.99906C85.5006 14.9992 80.2505 17.2495 74.2497 15.75C70.8273 14.8945 68.3806 12.41 65.6718 9.66099C61.2601 5.18285 56.1529 0 45 0ZM22.4994 26.9994C10.5002 26.9994 2.99925 32.9996 0 44.9998C4.49944 38.9997 9.74953 36.7494 15.7503 38.25C19.1727 39.1066 21.6194 41.59 24.3283 44.3379C28.7399 48.816 33.8471 54 45 54C57.0004 54 64.5002 47.9999 67.5006 35.9996C63 41.9997 57.7499 44.2501 51.7503 42.7495C48.3268 41.8951 45.8801 39.4095 43.1712 36.6615C38.7595 32.1834 33.6535 26.9994 22.4994 26.9994Z" fill="#06B6D4"/>
</svg>
