<svg width="60" height="60" viewBox="0 0 60 60" fill="none" xmlns="http://www.w3.org/2000/svg">
<path d="M0 0H60V60H0V0Z" fill="#017ACB"/>
<path d="M28.8094 22.2188H31.6875V27.1875H23.9063V49.2938L23.7 49.35C23.4188 49.425 19.7156 49.425 18.9188 49.3406L18.2813 49.2844V27.1875H10.5V22.2188L12.9656 22.1906C14.3156 22.1719 17.7844 22.1719 20.6719 22.1906C23.5594 22.2094 27.2157 22.2188 28.8094 22.2188ZM50.7751 46.95C49.6313 48.1594 48.4032 48.8344 46.3594 49.3875C45.4688 49.6313 45.3188 49.6407 43.3126 49.6313C41.3063 49.6219 41.1469 49.6219 40.1719 49.3688C37.65 48.7219 35.6157 47.4563 34.2282 45.6656C33.8344 45.1594 33.1875 44.1094 33.1875 43.9781C33.1875 43.9406 33.2813 43.8563 33.4032 43.8C33.525 43.7438 33.7782 43.5844 33.9844 43.4625C34.1907 43.3406 34.5657 43.1156 34.8188 42.9844C35.0719 42.8531 35.8032 42.4219 36.4407 42.0375C37.0782 41.6531 37.6594 41.3438 37.725 41.3438C37.7907 41.3438 37.9125 41.475 38.0063 41.6344C38.5688 42.5813 39.8813 43.7906 40.8094 44.2031C41.3813 44.4469 42.6469 44.7188 43.2563 44.7188C43.8188 44.7188 44.8501 44.475 45.4032 44.2219C45.9938 43.95 46.2938 43.6782 46.6501 43.1344C46.8938 42.75 46.9219 42.6469 46.9126 41.9156C46.9126 41.2407 46.8751 41.0532 46.6876 40.7438C46.1626 39.8813 45.4501 39.4313 42.5626 38.1563C39.5813 36.8344 38.2407 36.0469 37.1532 34.9875C36.3469 34.2 36.1875 33.9844 35.6813 33C35.025 31.7344 34.9407 31.3219 34.9313 29.4375C34.9219 28.1156 34.95 27.6844 35.0907 27.2344C35.2875 26.5594 35.925 25.2563 36.2157 24.9281C36.8157 24.225 37.0313 24.0094 37.4532 23.6625C38.7282 22.6125 40.7157 21.9188 42.6188 21.8531C42.8344 21.8531 43.5469 21.8906 44.2126 21.9375C46.1251 22.0969 47.4282 22.5656 48.6844 23.5688C49.6313 24.3188 51.0657 26.0813 50.9251 26.3156C50.8313 26.4563 47.0907 28.95 46.8469 29.025C46.6969 29.0719 46.5938 29.0156 46.3876 28.7719C45.1126 27.2438 44.5969 26.9156 43.3594 26.8406C42.4782 26.7844 42.0094 26.8875 41.4188 27.2813C40.8 27.6938 40.5 28.3219 40.5 29.1938C40.5094 30.4688 40.9969 31.0688 42.7969 31.9594C43.9594 32.5313 44.9532 33 45.0282 33C45.1407 33 47.5501 34.2 48.1782 34.575C51.1032 36.2906 52.2938 38.0531 52.6032 41.0906C52.8282 43.3781 52.1813 45.4688 50.7751 46.95Z" fill="white"/>
</svg>
