<svg width="60" height="60" viewBox="0 0 60 60" fill="none" xmlns="http://www.w3.org/2000/svg">
<path d="M59.8015 8.8806L31.6164 59.2168C31.0345 60.2561 29.5394 60.2622 28.9488 59.2281L0.205003 8.88528C-0.438592 7.75842 0.526331 6.39326 1.80508 6.62172L30.0204 11.6584C30.2004 11.6906 30.3847 11.6902 30.5646 11.6575L58.1897 6.62874C59.4642 6.39677 60.4336 7.75139 59.8015 8.8806Z" fill="url(#paint0_linear_35_60)"/>
<path d="M43.4604 0.0147724L22.6028 4.09668C22.4362 4.12929 22.2851 4.21629 22.1734 4.344C22.0616 4.47171 21.9955 4.63289 21.9855 4.8022L20.7025 26.4444C20.6955 26.5631 20.7162 26.6818 20.7631 26.7911C20.81 26.9004 20.8818 26.9973 20.9727 27.074C21.0636 27.1508 21.1712 27.2053 21.2869 27.2333C21.4027 27.2612 21.5233 27.2619 21.6393 27.2351L27.4464 25.8967C27.9897 25.7714 28.4807 26.2494 28.3689 26.7951L26.6437 35.233C26.5277 35.8009 27.0614 36.2864 27.6166 36.1178L31.2035 35.0296C31.7594 34.861 32.2938 35.3479 32.1761 35.9163L29.4344 49.1702C29.2629 49.9993 30.367 50.4513 30.8273 49.7407L31.135 49.2659L48.131 15.3897C48.4158 14.8225 47.9248 14.1758 47.3013 14.2961L41.3236 15.4482C40.762 15.5564 40.2841 15.0339 40.4426 14.4852L44.344 0.977549C44.5027 0.427458 44.0229 -0.0952457 43.4606 0.0147724H43.4604Z" fill="url(#paint1_linear_35_60)"/>
<defs>
<linearGradient id="paint0_linear_35_60" x1="-0.4968" y1="10.6829" x2="29.851" y2="51.9497" gradientUnits="userSpaceOnUse">
<stop stop-color="#41D1FF"/>
<stop offset="1" stop-color="#BD34FE"/>
</linearGradient>
<linearGradient id="paint1_linear_35_60" x1="32.6351" y1="1.12309" x2="38.8731" y2="43.9678" gradientUnits="userSpaceOnUse">
<stop stop-color="#FFEA83"/>
<stop offset="0.083" stop-color="#FFDD35"/>
<stop offset="1" stop-color="#FFA800"/>
</linearGradient>
</defs>
</svg>
