<svg width="60" height="60" viewBox="0 0 60 60" fill="none" xmlns="http://www.w3.org/2000/svg">
<g clip-path="url(#clip0_35_64)">
<path d="M0.57085 20.9228C0.57085 20.9228 -0.890525 19.858 0.863125 18.4362L4.94889 14.7432C4.94889 14.7432 6.11799 13.4999 7.35406 14.5832L45.0575 43.4374V57.2736C45.0575 57.2736 45.0393 59.4463 42.2809 59.2063L0.57085 20.9228Z" fill="#2489CA"/>
<path d="M10.2889 29.8413L0.570779 38.7721C0.570779 38.7721 -0.427829 39.523 0.570779 40.8647L5.08278 45.0131C5.08278 45.0131 6.15446 46.1764 7.73761 44.8531L18.0403 36.9564L10.2889 29.8413Z" fill="#1070B3"/>
<path d="M27.3502 29.9152L45.173 16.1589L45.0573 2.39654C45.0573 2.39654 44.2961 -0.607054 41.757 0.956294L18.04 22.7755L27.3502 29.9152Z" fill="#0877B9"/>
<path d="M42.2815 59.2249C43.3166 60.2959 44.571 59.945 44.571 59.945L58.4601 53.0269C60.2381 51.8021 59.9885 50.2818 59.9885 50.2818V8.97007C59.9885 7.15437 58.1496 6.52657 58.1496 6.52657L46.1115 0.66094C43.481 -0.982421 41.7578 0.956376 41.7578 0.956376C41.7578 0.956376 43.9742 -0.656211 45.0581 2.39662V57.0215C45.0581 57.3969 44.9789 57.7662 44.8206 58.0986C44.504 58.7448 43.8159 59.348 42.1658 59.0956L42.2815 59.2249Z" fill="#3C99D4"/>
</g>
<defs>
<clipPath id="clip0_35_64">
<rect width="60" height="60" fill="white"/>
</clipPath>
</defs>
</svg>
