<svg width="60" height="60" viewBox="0 0 60 60" fill="none" xmlns="http://www.w3.org/2000/svg">
<g clip-path="url(#clip0_35_71)">
<path d="M4.26466 29.999C4.26466 40.1862 10.1845 48.9891 18.7687 53.1613L6.49273 19.5253C5.02112 22.8208 4.26187 26.3899 4.26466 29.999ZM47.3728 28.7003C47.3728 25.5197 46.2304 23.317 45.2505 21.6026C43.946 19.4827 42.7237 17.6875 42.7237 15.5675C42.7237 13.2018 44.5174 10.9996 47.0447 10.9996C47.1588 10.9996 47.267 11.0138 47.3787 11.0202C42.7996 6.82541 36.6996 4.26428 29.9997 4.26428C21.009 4.26428 13.0991 8.87726 8.49751 15.8643C9.1013 15.8824 9.6708 15.8947 10.1536 15.8947C12.8454 15.8947 17.0122 15.568 17.0122 15.568C18.3995 15.4862 18.563 17.5239 17.1777 17.6879C17.1777 17.6879 15.7831 17.852 14.2317 17.9333L23.6034 45.8095L29.2358 28.9182L25.2257 17.9328C23.8399 17.8515 22.527 17.6875 22.527 17.6875C21.1403 17.6062 21.3028 15.4858 22.6896 15.5675C22.6896 15.5675 26.9396 15.8942 29.4684 15.8942C32.1597 15.8942 36.3269 15.5675 36.3269 15.5675C37.7152 15.4858 37.8783 17.5234 36.4919 17.6875C36.4919 17.6875 35.0949 17.8515 33.5465 17.9328L42.8466 45.5979L45.4131 37.0198C46.5261 33.4602 47.3728 30.9035 47.3728 28.7003Z" fill="white"/>
<path d="M30.4509 32.2502L22.7295 54.6872C25.0901 55.3829 27.5384 55.7362 29.9994 55.7362C32.9963 55.7362 35.8703 55.2176 38.5454 54.2774C38.4737 54.165 38.4124 54.0463 38.3623 53.9228L30.4509 32.2502ZM52.5809 17.6517C52.6915 18.4715 52.7542 19.352 52.7542 20.2981C52.7542 22.9096 52.2665 25.8454 50.7974 29.5162L42.9365 52.2446C50.5873 47.783 55.7335 39.4938 55.7335 29.999C55.7403 25.6833 54.6559 21.4359 52.5809 17.6517Z" fill="white"/>
<path d="M29.9993 0C13.4581 0 0 13.4574 0 29.999C0 46.5426 13.4576 60 29.9993 60C46.5399 60 60 46.543 60 29.999C59.9995 13.4574 46.5399 0 29.9993 0ZM29.9993 58.6244C14.2166 58.6244 1.37553 45.783 1.37553 29.999C1.37553 14.2165 14.2161 1.37606 29.9993 1.37606C45.7814 1.37606 58.6215 14.2165 58.6215 29.999C58.6215 45.783 45.7809 58.6244 29.9993 58.6244Z" fill="white"/>
</g>
<defs>
<clipPath id="clip0_35_71">
<rect width="60" height="60" fill="white"/>
</clipPath>
</defs>
</svg>
